# MagicaVoxel @ Ephtracy

# group
o 

# material
mtllib Tile_001.mtl
usemtl palette

# normals
vn -1 0 0
vn 1 0 0
vn 0 0 1
vn 0 0 -1
vn 0 -1 0
vn 0 1 0

# texcoords
vt 0.0214844 0.5
vt 0.134766 0.5
vt 0.306641 0.5

# verts
v -0.5 0 0.5
v -0.5 0 0
v -0.5 0 -0.1
v -0.5 0 -0.5
v -0.5 0.8 0.5
v -0.5 0.8 0
v -0.5 0.8 -0.1
v -0.5 0.8 -0.5
v -0.5 1 0.5
v -0.5 1 0
v -0.5 1 -0.1
v -0.5 1 -0.5
v 0.5 0 0.5
v 0.5 0 0
v 0.5 0 -0.1
v 0.5 0 -0.5
v 0.5 0.8 0.5
v 0.5 0.8 0
v 0.5 0.8 -0.1
v 0.5 0.8 -0.5
v 0.5 1 0.5
v 0.5 1 0
v 0.5 1 -0.1
v 0.5 1 -0.5
v -0.5 0 0.5
v -0.5 0.8 0.5
v -0.5 1 0.5
v -0.1 0 0.5
v -0.1 0.8 0.5
v -0.1 1 0.5
v 0 0 0.5
v 0 0.8 0.5
v 0 1 0.5
v 0.5 0 0.5
v 0.5 0.8 0.5
v 0.5 1 0.5
v -0.5 0 -0.5
v -0.5 0.8 -0.5
v -0.5 1 -0.5
v -0.1 0 -0.5
v -0.1 0.8 -0.5
v -0.1 1 -0.5
v 0 0 -0.5
v 0 0.8 -0.5
v 0 1 -0.5
v 0.5 0 -0.5
v 0.5 0.8 -0.5
v 0.5 1 -0.5
v -0.5 0 0.5
v -0.1 0 0.5
v 0 0 0.5
v 0.5 0 0.5
v -0.5 0 0
v -0.1 0 0
v 0 0 0
v 0.5 0 0
v -0.5 0 -0.1
v -0.1 0 -0.1
v 0 0 -0.1
v 0.5 0 -0.1
v -0.5 0 -0.5
v -0.1 0 -0.5
v 0 0 -0.5
v 0.5 0 -0.5
v -0.5 1 0.5
v -0.1 1 0.5
v 0 1 0.5
v 0.5 1 0.5
v -0.5 1 0
v -0.1 1 0
v 0 1 0
v 0.5 1 0
v -0.5 1 -0.1
v -0.1 1 -0.1
v 0 1 -0.1
v 0.5 1 -0.1
v -0.5 1 -0.5
v -0.1 1 -0.5
v 0 1 -0.5
v 0.5 1 -0.5

# faces
f 5/2/1 2/2/1 1/2/1
f 6/1/1 3/1/1 2/1/1
f 6/2/1 2/2/1 5/2/1
f 7/2/1 4/2/1 3/2/1
f 7/1/1 3/1/1 6/1/1
f 8/2/1 4/2/1 7/2/1
f 9/3/1 6/3/1 5/3/1
f 10/1/1 7/1/1 6/1/1
f 10/3/1 6/3/1 9/3/1
f 11/3/1 8/3/1 7/3/1
f 11/1/1 7/1/1 10/1/1
f 12/3/1 8/3/1 11/3/1
f 13/2/2 14/2/2 17/2/2
f 14/1/2 15/1/2 18/1/2
f 17/2/2 14/2/2 18/2/2
f 15/2/2 16/2/2 19/2/2
f 18/1/2 15/1/2 19/1/2
f 19/2/2 16/2/2 20/2/2
f 17/3/2 18/3/2 21/3/2
f 18/1/2 19/1/2 22/1/2
f 21/3/2 18/3/2 22/3/2
f 19/3/2 20/3/2 23/3/2
f 22/1/2 19/1/2 23/1/2
f 23/3/2 20/3/2 24/3/2
f 28/2/3 26/2/3 25/2/3
f 29/3/3 27/3/3 26/3/3
f 29/2/3 26/2/3 28/2/3
f 30/3/3 27/3/3 29/3/3
f 31/1/3 29/1/3 28/1/3
f 31/1/3 30/1/3 29/1/3
f 32/1/3 30/1/3 31/1/3
f 33/1/3 30/1/3 32/1/3
f 34/2/3 32/2/3 31/2/3
f 35/3/3 33/3/3 32/3/3
f 35/2/3 32/2/3 34/2/3
f 36/3/3 33/3/3 35/3/3
f 37/2/4 38/2/4 40/2/4
f 38/3/4 39/3/4 41/3/4
f 40/2/4 38/2/4 41/2/4
f 41/3/4 39/3/4 42/3/4
f 40/1/4 41/1/4 43/1/4
f 41/1/4 42/1/4 43/1/4
f 43/1/4 42/1/4 44/1/4
f 44/1/4 42/1/4 45/1/4
f 43/2/4 44/2/4 46/2/4
f 44/3/4 45/3/4 47/3/4
f 46/2/4 44/2/4 47/2/4
f 47/3/4 45/3/4 48/3/4
f 53/2/5 50/2/5 49/2/5
f 54/1/5 51/1/5 50/1/5
f 54/2/5 50/2/5 53/2/5
f 55/2/5 52/2/5 51/2/5
f 55/1/5 51/1/5 54/1/5
f 56/2/5 52/2/5 55/2/5
f 57/1/5 54/1/5 53/1/5
f 57/1/5 55/1/5 54/1/5
f 57/1/5 56/1/5 55/1/5
f 58/1/5 56/1/5 57/1/5
f 59/1/5 56/1/5 58/1/5
f 60/1/5 56/1/5 59/1/5
f 61/2/5 58/2/5 57/2/5
f 62/1/5 59/1/5 58/1/5
f 62/2/5 58/2/5 61/2/5
f 63/2/5 60/2/5 59/2/5
f 63/1/5 59/1/5 62/1/5
f 64/2/5 60/2/5 63/2/5
f 65/3/6 66/3/6 69/3/6
f 66/1/6 67/1/6 70/1/6
f 69/3/6 66/3/6 70/3/6
f 67/3/6 68/3/6 71/3/6
f 70/1/6 67/1/6 71/1/6
f 71/3/6 68/3/6 72/3/6
f 69/1/6 70/1/6 73/1/6
f 70/1/6 71/1/6 73/1/6
f 71/1/6 72/1/6 73/1/6
f 73/1/6 72/1/6 74/1/6
f 74/1/6 72/1/6 75/1/6
f 75/1/6 72/1/6 76/1/6
f 73/3/6 74/3/6 77/3/6
f 74/1/6 75/1/6 78/1/6
f 77/3/6 74/3/6 78/3/6
f 75/3/6 76/3/6 79/3/6
f 78/1/6 75/1/6 79/1/6
f 79/3/6 76/3/6 80/3/6
